<?xml version="1.0"?>
<svg xmlns="http://www.w3.org/2000/svg" id="Outline" viewBox="0 0 64 64" width="512" height="512"><path d="M23.037,45.027l-3.263-.889L25,41.152l6.5,3.716a1,1,0,0,0,.992,0L39,41.152l5.227,2.986-3.264.889,2.5,1.428,4.626-1.261-1.261-4.626-2.5-1.429.891,3.263L40,39.42V32a1,1,0,0,0-.5-.868L33,27.42V21.471l2.391,2.392V20.984L32,17.594l-3.391,3.39v2.879L31,21.471V27.42l-6.5,3.712A1,1,0,0,0,24,32v7.42L18.781,42.4l.891-3.263-2.5,1.429-1.261,4.626,4.626,1.261ZM26,33.723l5,2.857v5.7L26,39.42ZM36.985,32,32,34.848,27.015,32,32,29.152ZM33,42.277v-5.7l5-2.857v5.7Z" style="fill:rgb(0,0,0)"/><path d="M7,62H57a1,1,0,0,0,1-1V3a1,1,0,0,0-1-1H7A1,1,0,0,0,6,3V61A1,1,0,0,0,7,62ZM8,51h4v4H8Zm0-6h4v4H8Zm0-6h4v4H8Zm0-6h4v4H8Zm0-6h4v4H8Zm0-6h4v4H8Zm0-6h4v4H8Zm4-2H8V9h4ZM8,57h4v3H8ZM56,19H52V15h4Zm0,6H52V21h4Zm0,6H52V27h4Zm0,6H52V33h4Zm0,6H52V39h4Zm0,6H52V45h4Zm-4,2h4v4H52Zm4-38H52V9h4Zm0,47H52V57h4ZM56,7H52V4h4ZM50,60H14V4H50ZM8,4h4V7H8Z" style="fill:rgb(0,0,0)"/></svg>